{"asset":{"version":"2.0","generator":"Blockbench 4.9.4 glTF exporter"},"scenes":[{"nodes":[38],"name":"blockbench_export"}],"scene":0,"nodes":[{"translation":[-0.43749999999999994,-0.78125,-0.012500000000000011],"name":"sphere","mesh":0},{"translation":[-0.43749999999999994,-0.78125,-0.012500000000000011],"name":"cuboid","mesh":1},{"rotation":[0.766044443118978,0,0,0.6427876096865394],"translation":[-0.062499999999999944,-0.0625,-0.012500000000000011],"name":"cylinder","mesh":2},{"rotation":[0.0805214068653804,0.03335305878500261,-0.3812272063696535,0.9203638919632243],"name":"tube","mesh":3},{"rotation":[0.0805214068653804,0.03335305878500261,-0.3812272063696535,0.9203638919632243],"name":"tube","mesh":4},{"name":"earR","children":[2,3,4]},{"rotation":[0.766044443118978,0,0,0.6427876096865394],"name":"cylinder","mesh":5},{"translation":[-0.8125,-0.0625,-0.012500000000000011],"name":"earL","children":[6]},{"translation":[0.43749999999999994,0.53125,0.07500000000000001],"name":"head","children":[0,1,5,7]},{"translation":[-2.7207768202162553e-17,0.75,-0.026315789473684195],"name":"sphere","mesh":6},{"name":"skirt","mesh":7},{"rotation":[0,0,-0.3007057995042731,0.9537169507482269],"translation":[-4.3175339846533866e-17,0.84375,-0.02777777777777779],"name":"belt","mesh":8},{"translation":[0,-0.875,0.0625],"name":"torso","children":[9,10,11]},{"rotation":[0,0,0.7071067811865475,0.7071067811865476],"translation":[0.31250000000000006,-0.3125,0],"name":"cuboid","mesh":9},{"rotation":[0,0,0.7071067811865475,0.7071067811865476],"translation":[0.09375000000000022,2.220446049250313e-16,0],"name":"cuboid","mesh":10},{"rotation":[0.7071067811865475,0,0,0.7071067811865476],"name":"sphere","mesh":11},{"translation":[0.2812500000000001,-4.440892098500626e-16,0],"name":"hand","children":[15]},{"translation":[0.21875000000000006,-1.1102230246251565e-16,0],"name":"arm","children":[14,16]},{"rotation":[0,0,-0.4422886902190013,0.8968727415326883],"translation":[0.175,0.04375000000000007,0.03125],"name":"shoulderR","children":[13,17]},{"rotation":[0,0,-0.7071067811865475,0.7071067811865476],"translation":[-0.31250000000000006,-0.3125,0],"name":"cuboid","mesh":12},{"rotation":[0,0,-0.7071067811865475,0.7071067811865476],"translation":[-0.09375000000000022,2.220446049250313e-16,0],"name":"cuboid","mesh":13},{"rotation":[0.7071067811865475,0,0,0.7071067811865476],"name":"sphere","mesh":14},{"translation":[-0.2812500000000001,-4.440892098500626e-16,0],"name":"hand2","children":[21]},{"translation":[-0.21875000000000006,-1.1102230246251565e-16,0],"name":"arm2","children":[20,22]},{"rotation":[0,0,0.4422886902190013,0.8968727415326883],"translation":[-0.175,0.04375000000000007,0.03125],"name":"shoulderL","children":[19,23]},{"rotation":[0,0,0.7071067811865475,0.7071067811865476],"translation":[0.31250000000000006,-0.3125,0],"name":"cuboid","mesh":15},{"rotation":[0,0,0.7071067811865475,0.7071067811865476],"translation":[0.09375000000000022,2.220446049250313e-16,0],"name":"cuboid","mesh":16},{"translation":[0,-0.062499999999999944,0],"name":"cuboid","mesh":17},{"rotation":[0,0,-0.043619387365336,0.9990482215818578],"translation":[0.2750237831369267,0.0005447233921723749,0],"name":"feet","children":[27]},{"translation":[0.09375000000000006,-1.1102230246251565e-16,0],"name":"leg","children":[26,28]},{"rotation":[0,0,-0.6755902076156601,0.7372773368101241],"translation":[0.11249999999999999,-0.33124999999999993,0.03125],"name":"thighR","children":[25,29]},{"rotation":[0,0,-0.7071067811865475,0.7071067811865476],"translation":[-0.31250000000000006,-0.3125,0],"name":"cuboid","mesh":18},{"rotation":[0,0,-0.7071067811865475,0.7071067811865476],"translation":[-0.09375000000000022,2.220446049250313e-16,0],"name":"cuboid","mesh":19},{"translation":[0.006249999999999978,-0.0625,0],"name":"cuboid","mesh":20},{"rotation":[0,0,0.043619387365336,0.9990482215818578],"translation":[-0.2812500000000001,-4.440892098500626e-16,0],"name":"feet2","children":[33]},{"translation":[-0.09375000000000006,-1.1102230246251565e-16,0],"name":"leg2","children":[32,34]},{"rotation":[0,0,0.6755902076156601,0.7372773368101241],"translation":[-0.11249999999999999,-0.33124999999999993,0.03125],"name":"thighL","children":[31,35]},{"translation":[0,0.75,0],"name":"goblin","children":[8,12,18,24,30,36]},{"children":[37]}],"bufferViews":[{"buffer":0,"byteOffset":0,"byteLength":1944,"target":34962,"byteStride":12},{"buffer":0,"byteOffset":1944,"byteLength":1944,"target":34962,"byteStride":12},{"buffer":0,"byteOffset":3888,"byteLength":1296,"target":34962,"byteStride":8},{"buffer":0,"byteOffset":5184,"byteLength":432,"target":34963},{"buffer":0,"byteOffset":5616,"byteLength":480,"target":34962,"byteStride":12},{"buffer":0,"byteOffset":6096,"byteLength":480,"target":34962,"byteStride":12},{"buffer":0,"byteOffset":6576,"byteLength":320,"target":34962,"byteStride":8},{"buffer":0,"byteOffset":6896,"byteLength":120,"target":34963},{"buffer":0,"byteOffset":7016,"byteLength":912,"target":34962,"byteStride":12},{"buffer":0,"byteOffset":7928,"byteLength":912,"target":34962,"byteStride":12},{"buffer":0,"byteOffset":8840,"byteLength":608,"target":34962,"byteStride":8},{"buffer":0,"byteOffset":9448,"byteLength":192,"target":34963},{"buffer":0,"byteOffset":9640,"byteLength":1152,"target":34962,"byteStride":12},{"buffer":0,"byteOffset":10792,"byteLength":1152,"target":34962,"byteStride":12},{"buffer":0,"byteOffset":11944,"byteLength":768,"target":34962,"byteStride":8},{"buffer":0,"byteOffset":12712,"byteLength":288,"target":34963},{"buffer":0,"byteOffset":13000,"byteLength":1152,"target":34962,"byteStride":12},{"buffer":0,"byteOffset":14152,"byteLength":1152,"target":34962,"byteStride":12},{"buffer":0,"byteOffset":15304,"byteLength":768,"target":34962,"byteStride":8},{"buffer":0,"byteOffset":16072,"byteLength":288,"target":34963},{"buffer":0,"byteOffset":16360,"byteLength":912,"target":34962,"byteStride":12},{"buffer":0,"byteOffset":17272,"byteLength":912,"target":34962,"byteStride":12},{"buffer":0,"byteOffset":18184,"byteLength":608,"target":34962,"byteStride":8},{"buffer":0,"byteOffset":18792,"byteLength":192,"target":34963},{"buffer":0,"byteOffset":18984,"byteLength":1944,"target":34962,"byteStride":12},{"buffer":0,"byteOffset":20928,"byteLength":1944,"target":34962,"byteStride":12},{"buffer":0,"byteOffset":22872,"byteLength":1296,"target":34962,"byteStride":8},{"buffer":0,"byteOffset":24168,"byteLength":432,"target":34963},{"buffer":0,"byteOffset":24600,"byteLength":2160,"target":34962,"byteStride":12},{"buffer":0,"byteOffset":26760,"byteLength":2160,"target":34962,"byteStride":12},{"buffer":0,"byteOffset":28920,"byteLength":1440,"target":34962,"byteStride":8},{"buffer":0,"byteOffset":30360,"byteLength":540,"target":34963},{"buffer":0,"byteOffset":30900,"byteLength":1728,"target":34962,"byteStride":12},{"buffer":0,"byteOffset":32628,"byteLength":1728,"target":34962,"byteStride":12},{"buffer":0,"byteOffset":34356,"byteLength":1152,"target":34962,"byteStride":8},{"buffer":0,"byteOffset":35508,"byteLength":432,"target":34963},{"buffer":0,"byteOffset":35940,"byteLength":672,"target":34962,"byteStride":12},{"buffer":0,"byteOffset":36612,"byteLength":672,"target":34962,"byteStride":12},{"buffer":0,"byteOffset":37284,"byteLength":448,"target":34962,"byteStride":8},{"buffer":0,"byteOffset":37732,"byteLength":168,"target":34963},{"buffer":0,"byteOffset":37900,"byteLength":480,"target":34962,"byteStride":12},{"buffer":0,"byteOffset":38380,"byteLength":480,"target":34962,"byteStride":12},{"buffer":0,"byteOffset":38860,"byteLength":320,"target":34962,"byteStride":8},{"buffer":0,"byteOffset":39180,"byteLength":120,"target":34963},{"buffer":0,"byteOffset":39300,"byteLength":1176,"target":34962,"byteStride":12},{"buffer":0,"byteOffset":40476,"byteLength":1176,"target":34962,"byteStride":12},{"buffer":0,"byteOffset":41652,"byteLength":784,"target":34962,"byteStride":8},{"buffer":0,"byteOffset":42436,"byteLength":252,"target":34963},{"buffer":0,"byteOffset":42688,"byteLength":672,"target":34962,"byteStride":12},{"buffer":0,"byteOffset":43360,"byteLength":672,"target":34962,"byteStride":12},{"buffer":0,"byteOffset":44032,"byteLength":448,"target":34962,"byteStride":8},{"buffer":0,"byteOffset":44480,"byteLength":168,"target":34963},{"buffer":0,"byteOffset":44648,"byteLength":480,"target":34962,"byteStride":12},{"buffer":0,"byteOffset":45128,"byteLength":480,"target":34962,"byteStride":12},{"buffer":0,"byteOffset":45608,"byteLength":320,"target":34962,"byteStride":8},{"buffer":0,"byteOffset":45928,"byteLength":120,"target":34963},{"buffer":0,"byteOffset":46048,"byteLength":1176,"target":34962,"byteStride":12},{"buffer":0,"byteOffset":47224,"byteLength":1176,"target":34962,"byteStride":12},{"buffer":0,"byteOffset":48400,"byteLength":784,"target":34962,"byteStride":8},{"buffer":0,"byteOffset":49184,"byteLength":252,"target":34963},{"buffer":0,"byteOffset":49436,"byteLength":672,"target":34962,"byteStride":12},{"buffer":0,"byteOffset":50108,"byteLength":672,"target":34962,"byteStride":12},{"buffer":0,"byteOffset":50780,"byteLength":448,"target":34962,"byteStride":8},{"buffer":0,"byteOffset":51228,"byteLength":168,"target":34963},{"buffer":0,"byteOffset":51396,"byteLength":480,"target":34962,"byteStride":12},{"buffer":0,"byteOffset":51876,"byteLength":480,"target":34962,"byteStride":12},{"buffer":0,"byteOffset":52356,"byteLength":320,"target":34962,"byteStride":8},{"buffer":0,"byteOffset":52676,"byteLength":120,"target":34963},{"buffer":0,"byteOffset":52796,"byteLength":672,"target":34962,"byteStride":12},{"buffer":0,"byteOffset":53468,"byteLength":672,"target":34962,"byteStride":12},{"buffer":0,"byteOffset":54140,"byteLength":448,"target":34962,"byteStride":8},{"buffer":0,"byteOffset":54588,"byteLength":168,"target":34963},{"buffer":0,"byteOffset":54756,"byteLength":672,"target":34962,"byteStride":12},{"buffer":0,"byteOffset":55428,"byteLength":672,"target":34962,"byteStride":12},{"buffer":0,"byteOffset":56100,"byteLength":448,"target":34962,"byteStride":8},{"buffer":0,"byteOffset":56548,"byteLength":168,"target":34963},{"buffer":0,"byteOffset":56716,"byteLength":480,"target":34962,"byteStride":12},{"buffer":0,"byteOffset":57196,"byteLength":480,"target":34962,"byteStride":12},{"buffer":0,"byteOffset":57676,"byteLength":320,"target":34962,"byteStride":8},{"buffer":0,"byteOffset":57996,"byteLength":120,"target":34963},{"buffer":0,"byteOffset":58116,"byteLength":672,"target":34962,"byteStride":12},{"buffer":0,"byteOffset":58788,"byteLength":672,"target":34962,"byteStride":12},{"buffer":0,"byteOffset":59460,"byteLength":448,"target":34962,"byteStride":8},{"buffer":0,"byteOffset":59908,"byteLength":168,"target":34963}],"buffers":[{"byteLength":60076,"uri":"data:application/octet-stream;base64,"}],"accessors":[{"bufferView":0,"componentType":5126,"count":162,"max":[0.37376895546913147,1.0625,0.35664618015289307],"min":[-0.37376895546913147,0.3125,-0.4420349597930908],"type":"VEC3"},{"bufferView":1,"componentType":5126,"count":162,"max":[0.9848077297210693,0.9510565400123596,1],"min":[-0.9848077297210693,-0.9563770890235901,-0.8498420119285583],"type":"VEC3"},{"bufferView":2,"componentType":5126,"count":162,"max":[0.5,0.5221312642097473],"min":[0,0],"type":"VEC2"},{"bufferView":3,"componentType":5123,"count":216,"max":[161],"min":[0],"type":"SCALAR"},{"bufferView":4,"componentType":5126,"count":40,"max":[0.0625,0.6875,-0.375],"min":[-0.0625,0.5279508233070374,-0.5996516942977905],"type":"VEC3"},{"bufferView":5,"componentType":5126,"count":40,"max":[1,1,1],"min":[-0.9701424837112427,-1,-0.8944271802902222],"type":"VEC3"},{"bufferView":6,"componentType":5126,"count":40,"max":[0.30142757296562195,0.25],"min":[0.0625,0],"type":"VEC2"},{"bufferView":7,"componentType":5123,"count":60,"max":[39],"min":[0],"type":"SCALAR"},{"bufferView":8,"componentType":5126,"count":76,"max":[0.23325318098068237,0.03125,-0.01875000074505806],"min":[-0.10825317353010178,-0.03125,-0.625],"type":"VEC3"},{"bufferView":9,"componentType":5126,"count":76,"max":[0.9960349798202515,1,0.9903879761695862],"min":[-0.8660253882408142,-1,-0.6546536684036255],"type":"VEC3"},{"bufferView":10,"componentType":5126,"count":76,"max":[0.609375,0.44843751192092896],"min":[0.004185937345027924,0],"type":"VEC2"},{"bufferView":11,"componentType":5123,"count":96,"max":[75],"min":[0],"type":"SCALAR"},{"bufferView":12,"componentType":5126,"count":96,"max":[0.10825317353010178,0.03750000149011612,0.09375],"min":[-0.10825317353010178,-0.02500000037252903,-0.09375],"type":"VEC3"},{"bufferView":13,"componentType":5126,"count":96,"max":[0.8660253882408142,1,1],"min":[-0.8660253882408142,-1,-1],"type":"VEC3"},{"bufferView":14,"componentType":5126,"count":96,"max":[0.3395640552043915,0.484375],"min":[0,0.0625],"type":"VEC2"},{"bufferView":15,"componentType":5123,"count":144,"max":[95],"min":[0],"type":"SCALAR"},{"bufferView":16,"componentType":5126,"count":96,"max":[0.045753177255392075,0.16249999403953552,0.09375],"min":[-0.17075318098068237,0.10000000149011612,-0.09375],"type":"VEC3"},{"bufferView":17,"componentType":5126,"count":96,"max":[0.8660253882408142,1,1],"min":[-0.8660253882408142,-1,-1],"type":"VEC3"},{"bufferView":18,"componentType":5126,"count":96,"max":[0.4020640552043915,0.5],"min":[0,0.203125],"type":"VEC2"},{"bufferView":19,"componentType":5123,"count":144,"max":[95],"min":[0],"type":"SCALAR"},{"bufferView":20,"componentType":5126,"count":76,"max":[0.10825317353010178,0.03125,-0.01875000074505806],"min":[-0.23325318098068237,-0.03125,-0.625],"type":"VEC3"},{"bufferView":21,"componentType":5126,"count":76,"max":[0.8660253882408142,1,0.9903879761695862],"min":[-0.9960349798202515,-1,-0.6546536684036255],"type":"VEC3"},{"bufferView":22,"componentType":5126,"count":76,"max":[0.6048921942710876,0.46875],"min":[0.109375,0],"type":"VEC2"},{"bufferView":23,"componentType":5123,"count":96,"max":[75],"min":[0],"type":"SCALAR"},{"bufferView":24,"componentType":5126,"count":162,"max":[0.24917930364608765,0.25,0.20157991349697113],"min":[-0.24917930364608765,-0.25,-0.22670751810073853],"type":"VEC3"},{"bufferView":25,"componentType":5126,"count":162,"max":[0.9633590579032898,0.9729464054107666,1],"min":[-0.9633590579032898,-0.9510565400123596,-0.9396926164627075],"type":"VEC3"},{"bufferView":26,"componentType":5126,"count":162,"max":[0.592046856880188,0.6098910570144653],"min":[0,0],"type":"VEC2"},{"bufferView":27,"componentType":5123,"count":216,"max":[161],"min":[0],"type":"SCALAR"},{"bufferView":28,"componentType":5126,"count":180,"max":[0.265625,0.668749988079071,0.1941000074148178],"min":[-0.265625,0.29374998807907104,-0.2746500074863434],"type":"VEC3"},{"bufferView":29,"componentType":5126,"count":180,"max":[0.9691058993339539,1,1],"min":[-0.9691058993339539,-0.28953808546066284,-1],"type":"VEC3"},{"bufferView":30,"componentType":5126,"count":180,"max":[0.71484375,0.6933810710906982],"min":[0.03125,0.03125],"type":"VEC2"},{"bufferView":31,"componentType":5123,"count":270,"max":[179],"min":[0],"type":"SCALAR"},{"bufferView":32,"componentType":5126,"count":144,"max":[0.399005264043808,-0.03125,0.22152778506278992],"min":[-0.274005264043808,-0.09375,-0.24806110560894012],"type":"VEC3"},{"bufferView":33,"componentType":5126,"count":144,"max":[0.9621662497520447,1,1],"min":[-0.9621662497520447,-1,-1],"type":"VEC3"},{"bufferView":34,"componentType":5126,"count":144,"max":[0.7794390916824341,0.789271891117096],"min":[0.048685938119888306,0],"type":"VEC2"},{"bufferView":35,"componentType":5123,"count":216,"max":[143],"min":[0],"type":"SCALAR"},{"bufferView":36,"componentType":5126,"count":56,"max":[0.359375,0.34375,0.046875],"min":[0.265625,0.03125,-0.046875],"type":"VEC3"},{"bufferView":37,"componentType":5126,"count":56,"max":[1,1,1],"min":[-1,-1,-1],"type":"VEC3"},{"bufferView":38,"componentType":5126,"count":56,"max":[0.52734375,0.5805327892303467],"min":[0.03515625,0.125],"type":"VEC2"},{"bufferView":39,"componentType":5123,"count":84,"max":[55],"min":[0],"type":"SCALAR"},{"bufferView":40,"componentType":5126,"count":40,"max":[0.046875,0.09375,0.046875],"min":[-0.046875,-0.15625,-0.046875],"type":"VEC3"},{"bufferView":41,"componentType":5126,"count":40,"max":[1,1,1],"min":[-1,-1,-1],"type":"VEC3"},{"bufferView":42,"componentType":5126,"count":40,"max":[0.34375,0.6262031197547913],"min":[0.06640625,0.328125],"type":"VEC2"},{"bufferView":43,"componentType":5123,"count":60,"max":[39],"min":[0],"type":"SCALAR"},{"bufferView":44,"componentType":5126,"count":98,"max":[0.10144577920436859,0.09375,0.09375],"min":[-0.10144577920436859,-0.09375,-0.10405465215444565],"type":"VEC3"},{"bufferView":45,"componentType":5126,"count":98,"max":[0.9007159471511841,0.9238795638084412,0.9238795042037964],"min":[-0.9007159471511841,-0.9238795638084412,-0.8323866724967957],"type":"VEC3"},{"bufferView":46,"componentType":5126,"count":98,"max":[0.6007000207901001,0.625],"min":[0.0047696903347969055,0.09375],"type":"VEC2"},{"bufferView":47,"componentType":5123,"count":126,"max":[97],"min":[0],"type":"SCALAR"},{"bufferView":48,"componentType":5126,"count":56,"max":[-0.265625,0.34375,0.046875],"min":[-0.359375,0.03125,-0.046875],"type":"VEC3"},{"bufferView":49,"componentType":5126,"count":56,"max":[1,1,1],"min":[-1,-1,-1],"type":"VEC3"},{"bufferView":50,"componentType":5126,"count":56,"max":[0.52734375,0.5805327892303467],"min":[0.03515625,0.125],"type":"VEC2"},{"bufferView":51,"componentType":5123,"count":84,"max":[55],"min":[0],"type":"SCALAR"},{"bufferView":52,"componentType":5126,"count":40,"max":[0.046875,0.09375,0.046875],"min":[-0.046875,-0.15625,-0.046875],"type":"VEC3"},{"bufferView":53,"componentType":5126,"count":40,"max":[1,1,1],"min":[-1,-1,-1],"type":"VEC3"},{"bufferView":54,"componentType":5126,"count":40,"max":[0.34375,0.6262031197547913],"min":[0.06640625,0.328125],"type":"VEC2"},{"bufferView":55,"componentType":5123,"count":60,"max":[39],"min":[0],"type":"SCALAR"},{"bufferView":56,"componentType":5126,"count":98,"max":[0.10144577920436859,0.09375,0.09375],"min":[-0.10144577920436859,-0.09375,-0.10405465215444565],"type":"VEC3"},{"bufferView":57,"componentType":5126,"count":98,"max":[0.9007159471511841,0.9238795638084412,0.9238795042037964],"min":[-0.9007159471511841,-0.9238795638084412,-0.8323866724967957],"type":"VEC3"},{"bufferView":58,"componentType":5126,"count":98,"max":[0.6007000207901001,0.625],"min":[0.0047696903347969055,0.09375],"type":"VEC2"},{"bufferView":59,"componentType":5123,"count":126,"max":[97],"min":[0],"type":"SCALAR"},{"bufferView":60,"componentType":5126,"count":56,"max":[0.359375,0.34375,0.046875],"min":[0.265625,0.09375,-0.046875],"type":"VEC3"},{"bufferView":61,"componentType":5126,"count":56,"max":[1,1,1],"min":[-1,-1,-1],"type":"VEC3"},{"bufferView":62,"componentType":5126,"count":56,"max":[0.57421875,0.5961577892303467],"min":[0.25,0.09375],"type":"VEC2"},{"bufferView":63,"componentType":5123,"count":84,"max":[55],"min":[0],"type":"SCALAR"},{"bufferView":64,"componentType":5126,"count":40,"max":[0.046875,0.03125,0.046875],"min":[-0.046875,-0.15625,-0.046875],"type":"VEC3"},{"bufferView":65,"componentType":5126,"count":40,"max":[1,1,1],"min":[-1,-1,-1],"type":"VEC3"},{"bufferView":66,"componentType":5126,"count":40,"max":[0.58984375,0.6105797290802002],"min":[0.125,0.25],"type":"VEC2"},{"bufferView":67,"componentType":5123,"count":60,"max":[39],"min":[0],"type":"SCALAR"},{"bufferView":68,"componentType":5126,"count":56,"max":[0.0625,0.125,0.0625],"min":[-0.03125,-1.3877787807814457e-17,-0.15625],"type":"VEC3"},{"bufferView":69,"componentType":5126,"count":56,"max":[1,1,1],"min":[-1,-1,-1],"type":"VEC3"},{"bufferView":70,"componentType":5126,"count":56,"max":[0.59375,0.5625],"min":[0.0625,0.1875],"type":"VEC2"},{"bufferView":71,"componentType":5123,"count":84,"max":[55],"min":[0],"type":"SCALAR"},{"bufferView":72,"componentType":5126,"count":56,"max":[-0.265625,0.34375,0.046875],"min":[-0.359375,0.09375,-0.046875],"type":"VEC3"},{"bufferView":73,"componentType":5126,"count":56,"max":[1,1,1],"min":[-1,-1,-1],"type":"VEC3"},{"bufferView":74,"componentType":5126,"count":56,"max":[0.57421875,0.5961577892303467],"min":[0.25,0.09375],"type":"VEC2"},{"bufferView":75,"componentType":5123,"count":84,"max":[55],"min":[0],"type":"SCALAR"},{"bufferView":76,"componentType":5126,"count":40,"max":[0.046875,0.03125,0.046875],"min":[-0.046875,-0.15625,-0.046875],"type":"VEC3"},{"bufferView":77,"componentType":5126,"count":40,"max":[1,1,1],"min":[-1,-1,-1],"type":"VEC3"},{"bufferView":78,"componentType":5126,"count":40,"max":[0.58984375,0.6105797290802002],"min":[0.125,0.25],"type":"VEC2"},{"bufferView":79,"componentType":5123,"count":60,"max":[39],"min":[0],"type":"SCALAR"},{"bufferView":80,"componentType":5126,"count":56,"max":[0.03125,0.125,0.0625],"min":[-0.0625,-1.3877787807814457e-17,-0.15625],"type":"VEC3"},{"bufferView":81,"componentType":5126,"count":56,"max":[1,1,1],"min":[-1,-1,-1],"type":"VEC3"},{"bufferView":82,"componentType":5126,"count":56,"max":[0.59375,0.5625],"min":[0.0625,0.1875],"type":"VEC2"},{"bufferView":83,"componentType":5123,"count":84,"max":[55],"min":[0],"type":"SCALAR"}],"materials":[{"pbrMetallicRoughness":{"metallicFactor":0,"roughnessFactor":1,"baseColorTexture":{"index":0}},"alphaMode":"MASK","alphaCutoff":0.05,"doubleSided":true}],"textures":[{"sampler":0,"source":0}],"samplers":[{"magFilter":9728,"minFilter":9728,"wrapS":33071,"wrapT":33071}],"images":[{"mimeType":"image/png","uri":"data:image/png;base64,"}],"meshes":[{"primitives":[{"mode":4,"attributes":{"POSITION":0,"NORMAL":1,"TEXCOORD_0":2},"indices":3,"material":0}]},{"primitives":[{"mode":4,"attributes":{"POSITION":4,"NORMAL":5,"TEXCOORD_0":6},"indices":7,"material":0}]},{"primitives":[{"mode":4,"attributes":{"POSITION":8,"NORMAL":9,"TEXCOORD_0":10},"indices":11,"material":0}]},{"primitives":[{"mode":4,"attributes":{"POSITION":12,"NORMAL":13,"TEXCOORD_0":14},"indices":15,"material":0}]},{"primitives":[{"mode":4,"attributes":{"POSITION":16,"NORMAL":17,"TEXCOORD_0":18},"indices":19,"material":0}]},{"primitives":[{"mode":4,"attributes":{"POSITION":20,"NORMAL":21,"TEXCOORD_0":22},"indices":23,"material":0}]},{"primitives":[{"mode":4,"attributes":{"POSITION":24,"NORMAL":25,"TEXCOORD_0":26},"indices":27,"material":0}]},{"primitives":[{"mode":4,"attributes":{"POSITION":28,"NORMAL":29,"TEXCOORD_0":30},"indices":31,"material":0}]},{"primitives":[{"mode":4,"attributes":{"POSITION":32,"NORMAL":33,"TEXCOORD_0":34},"indices":35,"material":0}]},{"primitives":[{"mode":4,"attributes":{"POSITION":36,"NORMAL":37,"TEXCOORD_0":38},"indices":39,"material":0}]},{"primitives":[{"mode":4,"attributes":{"POSITION":40,"NORMAL":41,"TEXCOORD_0":42},"indices":43,"material":0}]},{"primitives":[{"mode":4,"attributes":{"POSITION":44,"NORMAL":45,"TEXCOORD_0":46},"indices":47,"material":0}]},{"primitives":[{"mode":4,"attributes":{"POSITION":48,"NORMAL":49,"TEXCOORD_0":50},"indices":51,"material":0}]},{"primitives":[{"mode":4,"attributes":{"POSITION":52,"NORMAL":53,"TEXCOORD_0":54},"indices":55,"material":0}]},{"primitives":[{"mode":4,"attributes":{"POSITION":56,"NORMAL":57,"TEXCOORD_0":58},"indices":59,"material":0}]},{"primitives":[{"mode":4,"attributes":{"POSITION":60,"NORMAL":61,"TEXCOORD_0":62},"indices":63,"material":0}]},{"primitives":[{"mode":4,"attributes":{"POSITION":64,"NORMAL":65,"TEXCOORD_0":66},"indices":67,"material":0}]},{"primitives":[{"mode":4,"attributes":{"POSITION":68,"NORMAL":69,"TEXCOORD_0":70},"indices":71,"material":0}]},{"primitives":[{"mode":4,"attributes":{"POSITION":72,"NORMAL":73,"TEXCOORD_0":74},"indices":75,"material":0}]},{"primitives":[{"mode":4,"attributes":{"POSITION":76,"NORMAL":77,"TEXCOORD_0":78},"indices":79,"material":0}]},{"primitives":[{"mode":4,"attributes":{"POSITION":80,"NORMAL":81,"TEXCOORD_0":82},"indices":83,"material":0}]}]}