{"asset":{"version":"2.0","generator":"Blockbench 4.9.4 glTF exporter"},"scenes":[{"nodes":[5],"name":"blockbench_export"}],"scene":0,"nodes":[{"translation":[0.08747453053903251,0.6841369453840969,-1.7746379956630397e-17],"name":"cylinder","mesh":0},{"translation":[0.17877546946096748,-0.06718750000000007,1.916853561215606e-17],"name":"cylinder","mesh":1},{"rotation":[0,0.3826834323650898,0,0.9238795325112867],"translation":[-0.25872453053903255,-1.2796875,1.916853561215606e-17],"name":"cuboid","mesh":2},{"translation":[0.08747453053903251,-0.6810119453840968,-1.7746379956630397e-17],"name":"cylinder","mesh":3},{"translation":[-0.17877546946096748,-0.0015625000000000222,-1.916853561215606e-17],"name":"bow","children":[0,1,2,3]},{"children":[4]}],"bufferViews":[{"buffer":0,"byteOffset":0,"byteLength":2448,"target":34962,"byteStride":12},{"buffer":0,"byteOffset":2448,"byteLength":2448,"target":34962,"byteStride":12},{"buffer":0,"byteOffset":4896,"byteLength":1632,"target":34962,"byteStride":8},{"buffer":0,"byteOffset":6528,"byteLength":576,"target":34963},{"buffer":0,"byteOffset":7104,"byteLength":720,"target":34962,"byteStride":12},{"buffer":0,"byteOffset":7824,"byteLength":720,"target":34962,"byteStride":12},{"buffer":0,"byteOffset":8544,"byteLength":480,"target":34962,"byteStride":8},{"buffer":0,"byteOffset":9024,"byteLength":144,"target":34963},{"buffer":0,"byteOffset":9168,"byteLength":288,"target":34962,"byteStride":12},{"buffer":0,"byteOffset":9456,"byteLength":288,"target":34962,"byteStride":12},{"buffer":0,"byteOffset":9744,"byteLength":192,"target":34962,"byteStride":8},{"buffer":0,"byteOffset":9936,"byteLength":72,"target":34963},{"buffer":0,"byteOffset":10008,"byteLength":2448,"target":34962,"byteStride":12},{"buffer":0,"byteOffset":12456,"byteLength":2448,"target":34962,"byteStride":12},{"buffer":0,"byteOffset":14904,"byteLength":1632,"target":34962,"byteStride":8},{"buffer":0,"byteOffset":16536,"byteLength":576,"target":34963}],"buffers":[{"byteLength":17112,"uri":"data:application/octet-stream;base64,"}],"accessors":[{"bufferView":0,"componentType":5126,"count":204,"max":[0.22596971690654755,0.647052526473999,0.09375],"min":[-0.4438224136829376,-0.501324474811554,-0.09375],"type":"VEC3"},{"bufferView":1,"componentType":5126,"count":204,"max":[0.8756359219551086,0.9805806875228882,1],"min":[-0.8756359219551086,-1,-1],"type":"VEC3"},{"bufferView":2,"componentType":5126,"count":204,"max":[0.27355095744132996,0.3125],"min":[0,0],"type":"VEC2"},{"bufferView":3,"componentType":5123,"count":288,"max":[203],"min":[0],"type":"SCALAR"},{"bufferView":4,"componentType":5126,"count":60,"max":[0.0625,0.25,0.05281250178813934],"min":[-0.0625,-0.125,-0.05281250178813934],"type":"VEC3"},{"bufferView":5,"componentType":5126,"count":60,"max":[0.860622227191925,1,1],"min":[-0.860622227191925,-1,-1],"type":"VEC3"},{"bufferView":6,"componentType":5126,"count":60,"max":[0.1875,0.14601564407348633],"min":[0.03125,0],"type":"VEC2"},{"bufferView":7,"componentType":5123,"count":72,"max":[59],"min":[0],"type":"SCALAR"},{"bufferView":8,"componentType":5126,"count":24,"max":[0.012500000186264515,2.5625,0.012500000186264515],"min":[-0.012500000186264515,0,-0.012500000186264515],"type":"VEC3"},{"bufferView":9,"componentType":5126,"count":24,"max":[1,1,1],"min":[-1,-1,-1],"type":"VEC3"},{"bufferView":10,"componentType":5126,"count":24,"max":[0.2734375,0.5703125],"min":[0,0],"type":"VEC2"},{"bufferView":11,"componentType":5123,"count":36,"max":[23],"min":[0],"type":"SCALAR"},{"bufferView":12,"componentType":5126,"count":204,"max":[0.22596971690654755,0.501324474811554,0.09375],"min":[-0.4438224136829376,-0.647052526473999,-0.09375],"type":"VEC3"},{"bufferView":13,"componentType":5126,"count":204,"max":[0.8756359219551086,1,1],"min":[-0.8756359219551086,-0.9805806875228882,-1],"type":"VEC3"},{"bufferView":14,"componentType":5126,"count":204,"max":[0.265625,0.359375],"min":[0.003070525359362364,0],"type":"VEC2"},{"bufferView":15,"componentType":5123,"count":288,"max":[203],"min":[0],"type":"SCALAR"}],"materials":[{"pbrMetallicRoughness":{"metallicFactor":0,"roughnessFactor":1,"baseColorTexture":{"index":0}},"alphaMode":"MASK","alphaCutoff":0.05,"doubleSided":true}],"textures":[{"sampler":0,"source":0}],"samplers":[{"magFilter":9728,"minFilter":9728,"wrapS":33071,"wrapT":33071}],"images":[{"mimeType":"image/png","uri":"data:image/png;base64,"}],"meshes":[{"primitives":[{"mode":4,"attributes":{"POSITION":0,"NORMAL":1,"TEXCOORD_0":2},"indices":3,"material":0}]},{"primitives":[{"mode":4,"attributes":{"POSITION":4,"NORMAL":5,"TEXCOORD_0":6},"indices":7,"material":0}]},{"primitives":[{"mode":4,"attributes":{"POSITION":8,"NORMAL":9,"TEXCOORD_0":10},"indices":11,"material":0}]},{"primitives":[{"mode":4,"attributes":{"POSITION":12,"NORMAL":13,"TEXCOORD_0":14},"indices":15,"material":0}]}]}