{"asset":{"version":"2.0","generator":"Blockbench 4.9.4 glTF exporter"},"scenes":[{"nodes":[4],"name":"blockbench_export"}],"scene":0,"nodes":[{"translation":[0,-1,0],"name":"cylinder","mesh":0},{"name":"cuboid","mesh":1},{"name":"cuboid","mesh":2},{"name":"cuboid","mesh":3},{"children":[0,1,2,3]}],"bufferViews":[{"buffer":0,"byteOffset":0,"byteLength":720,"target":34962,"byteStride":12},{"buffer":0,"byteOffset":720,"byteLength":720,"target":34962,"byteStride":12},{"buffer":0,"byteOffset":1440,"byteLength":480,"target":34962,"byteStride":8},{"buffer":0,"byteOffset":1920,"byteLength":144,"target":34963},{"buffer":0,"byteOffset":2064,"byteLength":672,"target":34962,"byteStride":12},{"buffer":0,"byteOffset":2736,"byteLength":672,"target":34962,"byteStride":12},{"buffer":0,"byteOffset":3408,"byteLength":448,"target":34962,"byteStride":8},{"buffer":0,"byteOffset":3856,"byteLength":168,"target":34963},{"buffer":0,"byteOffset":4024,"byteLength":672,"target":34962,"byteStride":12},{"buffer":0,"byteOffset":4696,"byteLength":672,"target":34962,"byteStride":12},{"buffer":0,"byteOffset":5368,"byteLength":448,"target":34962,"byteStride":8},{"buffer":0,"byteOffset":5816,"byteLength":144,"target":34963},{"buffer":0,"byteOffset":5960,"byteLength":672,"target":34962,"byteStride":12},{"buffer":0,"byteOffset":6632,"byteLength":672,"target":34962,"byteStride":12},{"buffer":0,"byteOffset":7304,"byteLength":448,"target":34962,"byteStride":8},{"buffer":0,"byteOffset":7752,"byteLength":168,"target":34963}],"buffers":[{"byteLength":7920,"uri":"data:application/octet-stream;base64,"}],"accessors":[{"bufferView":0,"componentType":5126,"count":60,"max":[0.0625,1.21875,0.046875],"min":[-0.0625,0.78125,-0.046875],"type":"VEC3"},{"bufferView":1,"componentType":5126,"count":60,"max":[0.8320503234863281,1,1],"min":[-0.8320503234863281,-1,-1],"type":"VEC3"},{"bufferView":2,"componentType":5126,"count":60,"max":[0.65625,0.65625],"min":[0.15625,0.015625],"type":"VEC2"},{"bufferView":3,"componentType":5123,"count":72,"max":[59],"min":[0],"type":"SCALAR"},{"bufferView":4,"componentType":5126,"count":56,"max":[0.09375,-0.21875,0.0625],"min":[-0.09375,-0.3125,-0.0625],"type":"VEC3"},{"bufferView":5,"componentType":5126,"count":56,"max":[0.9486833214759827,1,0.9486833214759827],"min":[-0.9486833214759827,-1,-0.9486833214759827],"type":"VEC3"},{"bufferView":6,"componentType":5126,"count":56,"max":[0.75,0.75],"min":[0.4427667260169983,0.0625],"type":"VEC2"},{"bufferView":7,"componentType":5123,"count":84,"max":[55],"min":[0],"type":"SCALAR"},{"bufferView":8,"componentType":5126,"count":56,"max":[0.125,1.78125,0.03125],"min":[-0.125,0.28125,-0.03125],"type":"VEC3"},{"bufferView":9,"componentType":5126,"count":56,"max":[1,0.1111111119389534,0.9701424837112427],"min":[-0.4444444477558136,-1,-0.9701424837112427],"type":"VEC3"},{"bufferView":10,"componentType":5126,"count":56,"max":[0.71875,0.8134727478027344],"min":[0,0],"type":"VEC2"},{"bufferView":11,"componentType":5123,"count":72,"max":[55],"min":[0],"type":"SCALAR"},{"bufferView":12,"componentType":5126,"count":56,"max":[0.1875,0.28125,0.0625],"min":[-0.1875,0.21875,-0.0625],"type":"VEC3"},{"bufferView":13,"componentType":5126,"count":56,"max":[1,1,1],"min":[-1,-1,-1],"type":"VEC3"},{"bufferView":14,"componentType":5126,"count":56,"max":[0.76900315284729,0.21875],"min":[0,0],"type":"VEC2"},{"bufferView":15,"componentType":5123,"count":84,"max":[55],"min":[0],"type":"SCALAR"}],"materials":[{"pbrMetallicRoughness":{"metallicFactor":0,"roughnessFactor":1,"baseColorTexture":{"index":0}},"alphaMode":"MASK","alphaCutoff":0.05,"doubleSided":true}],"textures":[{"sampler":0,"source":0}],"samplers":[{"magFilter":9728,"minFilter":9728,"wrapS":33071,"wrapT":33071}],"images":[{"mimeType":"image/png","uri":"data:image/png;base64,"}],"meshes":[{"primitives":[{"mode":4,"attributes":{"POSITION":0,"NORMAL":1,"TEXCOORD_0":2},"indices":3,"material":0}]},{"primitives":[{"mode":4,"attributes":{"POSITION":4,"NORMAL":5,"TEXCOORD_0":6},"indices":7,"material":0}]},{"primitives":[{"mode":4,"attributes":{"POSITION":8,"NORMAL":9,"TEXCOORD_0":10},"indices":11,"material":0}]},{"primitives":[{"mode":4,"attributes":{"POSITION":12,"NORMAL":13,"TEXCOORD_0":14},"indices":15,"material":0}]}]}