{"asset":{"version":"2.0","generator":"Blockbench 4.9.4 glTF exporter"},"scenes":[{"nodes":[5],"name":"blockbench_export"}],"scene":0,"nodes":[{"translation":[1.3120817563751848e-17,-0.09375,8.326672684688674e-17],"name":"tube","mesh":0},{"translation":[1.3120817563751848e-17,-0.09375,8.326672684688674e-17],"name":"cylinder","mesh":1},{"translation":[1.3120817563751848e-17,-0.09375,8.326672684688674e-17],"name":"cylinder","mesh":2},{"rotation":[0,0.3826834323650898,0,0.9238795325112867],"translation":[-1.1165311099923451e-17,-0.0874999999999999,-9.71445146547012e-17],"name":"cuboid","mesh":3},{"rotation":[-0.7071067811865475,0,0,0.7071067811865476],"translation":[-1.3120817563751848e-17,-1.1102230246251565e-16,1.1102230246251565e-16],"name":"shield","children":[0,1,2,3]},{"children":[4]}],"bufferViews":[{"buffer":0,"byteOffset":0,"byteLength":1920,"target":34962,"byteStride":12},{"buffer":0,"byteOffset":1920,"byteLength":1920,"target":34962,"byteStride":12},{"buffer":0,"byteOffset":3840,"byteLength":1280,"target":34962,"byteStride":8},{"buffer":0,"byteOffset":5120,"byteLength":480,"target":34963},{"buffer":0,"byteOffset":5600,"byteLength":720,"target":34962,"byteStride":12},{"buffer":0,"byteOffset":6320,"byteLength":720,"target":34962,"byteStride":12},{"buffer":0,"byteOffset":7040,"byteLength":480,"target":34962,"byteStride":8},{"buffer":0,"byteOffset":7520,"byteLength":120,"target":34963},{"buffer":0,"byteOffset":7640,"byteLength":1200,"target":34962,"byteStride":12},{"buffer":0,"byteOffset":8840,"byteLength":1200,"target":34962,"byteStride":12},{"buffer":0,"byteOffset":10040,"byteLength":800,"target":34962,"byteStride":8},{"buffer":0,"byteOffset":10840,"byteLength":240,"target":34963},{"buffer":0,"byteOffset":11080,"byteLength":1056,"target":34962,"byteStride":12},{"buffer":0,"byteOffset":12136,"byteLength":1056,"target":34962,"byteStride":12},{"buffer":0,"byteOffset":13192,"byteLength":704,"target":34962,"byteStride":8},{"buffer":0,"byteOffset":13896,"byteLength":264,"target":34963}],"buffers":[{"byteLength":14160,"uri":"data:application/octet-stream;base64,"}],"accessors":[{"bufferView":0,"componentType":5126,"count":160,"max":[0.4600147306919098,0.15625,0.4375],"min":[-0.4600147306919098,0.03125,-0.4375],"type":"VEC3"},{"bufferView":1,"componentType":5126,"count":160,"max":[0.9510565400123596,1,1],"min":[-0.9510565400123596,-1,-1],"type":"VEC3"},{"bufferView":2,"componentType":5126,"count":160,"max":[0.6312437653541565,0.484375],"min":[0.0021843749564141035,0],"type":"VEC2"},{"bufferView":3,"componentType":5123,"count":240,"max":[159],"min":[0],"type":"SCALAR"},{"bufferView":4,"componentType":5126,"count":60,"max":[0.427156537771225,0.125,0.40625],"min":[-0.427156537771225,0.0625,-0.40625],"type":"VEC3"},{"bufferView":5,"componentType":5126,"count":60,"max":[0,1,0],"min":[0,-1,0],"type":"VEC3"},{"bufferView":6,"componentType":5126,"count":60,"max":[0.5755390524864197,0.203125],"min":[0.3619609475135803,0],"type":"VEC2"},{"bufferView":7,"componentType":5123,"count":60,"max":[59],"min":[0],"type":"SCALAR"},{"bufferView":8,"componentType":5126,"count":100,"max":[0.16429097950458527,0.15625,0.15625],"min":[-0.16429097950458527,0.09375,-0.15625],"type":"VEC3"},{"bufferView":9,"componentType":5126,"count":100,"max":[0.9510565400123596,1,1],"min":[-0.9510565400123596,-1,-1],"type":"VEC3"},{"bufferView":10,"componentType":5126,"count":100,"max":[0.3271390497684479,0.34375],"min":[0.005801562685519457,0.046875],"type":"VEC2"},{"bufferView":11,"componentType":5123,"count":120,"max":[99],"min":[0],"type":"SCALAR"},{"bufferView":12,"componentType":5126,"count":88,"max":[0.12847718596458435,0.05624999850988388,0.12847718596458435],"min":[-0.12847718596458435,-0.09419417381286621,-0.12847718596458435],"type":"VEC3"},{"bufferView":13,"componentType":5126,"count":88,"max":[1,1,1],"min":[-1,-0.7071067690849304,-1],"type":"VEC3"},{"bufferView":14,"componentType":5126,"count":88,"max":[0.1875,0.171875],"min":[0,0],"type":"VEC2"},{"bufferView":15,"componentType":5123,"count":132,"max":[87],"min":[0],"type":"SCALAR"}],"materials":[{"pbrMetallicRoughness":{"metallicFactor":0,"roughnessFactor":1,"baseColorTexture":{"index":0}},"alphaMode":"MASK","alphaCutoff":0.05,"doubleSided":true}],"textures":[{"sampler":0,"source":0}],"samplers":[{"magFilter":9728,"minFilter":9728,"wrapS":33071,"wrapT":33071}],"images":[{"mimeType":"image/png","uri":"data:image/png;base64,"}],"meshes":[{"primitives":[{"mode":4,"attributes":{"POSITION":0,"NORMAL":1,"TEXCOORD_0":2},"indices":3,"material":0}]},{"primitives":[{"mode":4,"attributes":{"POSITION":4,"NORMAL":5,"TEXCOORD_0":6},"indices":7,"material":0}]},{"primitives":[{"mode":4,"attributes":{"POSITION":8,"NORMAL":9,"TEXCOORD_0":10},"indices":11,"material":0}]},{"primitives":[{"mode":4,"attributes":{"POSITION":12,"NORMAL":13,"TEXCOORD_0":14},"indices":15,"material":0}]}]}