{"asset":{"version":"2.0","generator":"Blockbench 4.9.4 glTF exporter"},"scenes":[{"nodes":[5],"name":"blockbench_export"}],"scene":0,"nodes":[{"translation":[5.947623346206196e-18,-1.3715277777777777,5.947623346206195e-18],"name":"cuboid","mesh":0},{"translation":[5.947623346206196e-18,-1.3715277777777777,5.947623346206195e-18],"name":"cuboid","mesh":1},{"translation":[5.947623346206196e-18,-1.3715277777777777,5.947623346206195e-18],"name":"cylinder","mesh":2},{"rotation":[0.7071067811865475,0,0,0.7071067811865476],"translation":[-1.9825411154020653e-17,-0.8090277777777777,-1.3877787807814457e-17],"name":"cylinder","mesh":3},{"translation":[-5.947623346206196e-18,0.3715277777777777,-5.947623346206195e-18],"name":"bone","children":[0,1,2,3]},{"children":[4]}],"bufferViews":[{"buffer":0,"byteOffset":0,"byteLength":408,"target":34962,"byteStride":12},{"buffer":0,"byteOffset":408,"byteLength":408,"target":34962,"byteStride":12},{"buffer":0,"byteOffset":816,"byteLength":272,"target":34962,"byteStride":8},{"buffer":0,"byteOffset":1088,"byteLength":84,"target":34963},{"buffer":0,"byteOffset":1172,"byteLength":288,"target":34962,"byteStride":12},{"buffer":0,"byteOffset":1460,"byteLength":288,"target":34962,"byteStride":12},{"buffer":0,"byteOffset":1748,"byteLength":192,"target":34962,"byteStride":8},{"buffer":0,"byteOffset":1940,"byteLength":72,"target":34963},{"buffer":0,"byteOffset":2012,"byteLength":720,"target":34962,"byteStride":12},{"buffer":0,"byteOffset":2732,"byteLength":720,"target":34962,"byteStride":12},{"buffer":0,"byteOffset":3452,"byteLength":480,"target":34962,"byteStride":8},{"buffer":0,"byteOffset":3932,"byteLength":144,"target":34963},{"buffer":0,"byteOffset":4076,"byteLength":720,"target":34962,"byteStride":12},{"buffer":0,"byteOffset":4796,"byteLength":720,"target":34962,"byteStride":12},{"buffer":0,"byteOffset":5516,"byteLength":480,"target":34962,"byteStride":8},{"buffer":0,"byteOffset":5996,"byteLength":144,"target":34963},{"buffer":0,"byteOffset":6140,"byteLength":16},{"buffer":0,"byteOffset":6156,"byteLength":64},{"buffer":0,"byteOffset":6220,"byteLength":12},{"buffer":0,"byteOffset":6232,"byteLength":48}],"buffers":[{"byteLength":6280,"uri":"data:application/octet-stream;base64,"}],"accessors":[{"bufferView":0,"componentType":5126,"count":34,"max":[0.1875,3.734375,0.0625],"min":[-0.1875,1.421875,-0.0625],"type":"VEC3"},{"bufferView":1,"componentType":5126,"count":34,"max":[0.3162277638912201,0.23076923191547394,0.9486833214759827],"min":[-0.3162277638912201,-1,-0.9486833214759827],"type":"VEC3"},{"bufferView":2,"componentType":5126,"count":34,"max":[0.5,0.5798593759536743],"min":[0,0],"type":"VEC2"},{"bufferView":3,"componentType":5123,"count":42,"max":[33],"min":[0],"type":"SCALAR"},{"bufferView":4,"componentType":5126,"count":24,"max":[0.4375,1.4375,0.09375],"min":[-0.4375,1.3125,-0.09375],"type":"VEC3"},{"bufferView":5,"componentType":5126,"count":24,"max":[1,1,1],"min":[-1,-1,-1],"type":"VEC3"},{"bufferView":6,"componentType":5126,"count":24,"max":[0.53125,0.5],"min":[0.3125,0],"type":"VEC2"},{"bufferView":7,"componentType":5123,"count":36,"max":[23],"min":[0],"type":"SCALAR"},{"bufferView":8,"componentType":5126,"count":60,"max":[0.09375,1.3125,0.0625],"min":[-0.09375,0.5625,-0.0625],"type":"VEC3"},{"bufferView":9,"componentType":5126,"count":60,"max":[0.800000011920929,1,1],"min":[-0.800000011920929,-1,-1],"type":"VEC3"},{"bufferView":10,"componentType":5126,"count":60,"max":[0.53125,0.609375],"min":[0.3125,0.21875],"type":"VEC2"},{"bufferView":11,"componentType":5123,"count":72,"max":[59],"min":[0],"type":"SCALAR"},{"bufferView":12,"componentType":5126,"count":60,"max":[0.125,0.09375,0.125],"min":[-0.125,-0.09375,-0.125],"type":"VEC3"},{"bufferView":13,"componentType":5126,"count":60,"max":[0.8944271802902222,1,1],"min":[-0.8944271802902222,-1,-1],"type":"VEC3"},{"bufferView":14,"componentType":5126,"count":60,"max":[0.578125,0.5625],"min":[0.40625,0],"type":"VEC2"},{"bufferView":15,"componentType":5123,"count":72,"max":[59],"min":[0],"type":"SCALAR"},{"bufferView":16,"componentType":5126,"count":4,"max":[2],"min":[0],"type":"SCALAR"},{"bufferView":17,"componentType":5126,"count":4,"max":[0,0,0,1],"min":[0,-0.8660253882408142,0,-1],"type":"VEC4"},{"bufferView":18,"componentType":5126,"count":3,"max":[2],"min":[0],"type":"SCALAR"},{"bufferView":19,"componentType":5126,"count":3,"max":[0,0,0.258819043636322,0.9659258127212524],"min":[0,0,-0.258819043636322,0.9659258127212524],"type":"VEC4"}],"materials":[{"pbrMetallicRoughness":{"metallicFactor":0,"roughnessFactor":1,"baseColorTexture":{"index":0}},"alphaMode":"MASK","alphaCutoff":0.05,"doubleSided":true}],"textures":[{"sampler":0,"source":0}],"samplers":[{"magFilter":9728,"minFilter":9728,"wrapS":33071,"wrapT":33071}],"images":[{"mimeType":"image/png","uri":"data:image/png;base64,"}],"meshes":[{"primitives":[{"mode":4,"attributes":{"POSITION":0,"NORMAL":1,"TEXCOORD_0":2},"indices":3,"material":0}]},{"primitives":[{"mode":4,"attributes":{"POSITION":4,"NORMAL":5,"TEXCOORD_0":6},"indices":7,"material":0}]},{"primitives":[{"mode":4,"attributes":{"POSITION":8,"NORMAL":9,"TEXCOORD_0":10},"indices":11,"material":0}]},{"primitives":[{"mode":4,"attributes":{"POSITION":12,"NORMAL":13,"TEXCOORD_0":14},"indices":15,"material":0}]}],"animations":[{"name":"spin","samplers":[{"input":16,"output":17,"interpolation":"LINEAR"}],"channels":[{"sampler":0,"target":{"node":4,"path":"rotation"}}]},{"name":"swing","samplers":[{"input":18,"output":19,"interpolation":"LINEAR"}],"channels":[{"sampler":0,"target":{"node":4,"path":"rotation"}}]}]}